<svg width="502" height="141" viewBox="0 0 502 141" fill="none" xmlns="http://www.w3.org/2000/svg">
<path d="M121.94 0V60.97L97.55 85.36H60.97V115.85H0V30.49H36.58L60.97 54.88V0H121.94Z" fill="#C7563D"/>
<path d="M265.7 97.81C265.7 73.65 283.21 55.66 306.88 55.66C331.04 55.66 347.41 72.52 347.41 98.46C347.41 100.89 347.25 103 347.25 103H285.15C286.77 115.81 295.04 124.08 306.88 124.08C316.28 124.08 322.93 118.89 324.88 111.43L345.14 113.86C339.47 130.4 324.55 139.97 306.88 139.97C282.88 139.97 265.7 122.16 265.7 97.81ZM327.47 89.06C326.01 78.84 318.39 71.38 306.88 71.38C296.18 71.38 288.23 78.38 285.8 89.06H327.47Z" fill="#040006"/>
<path d="M381.06 99.04L376.4 98.33L349.22 58.9H372.4L388.94 85.33L404.83 58.9H427.69L400.38 98.34L395.88 98.99L400.52 100.18L428.52 139.97H405.52L388.01 112.24L371.31 139.97H348.42L376.42 100.18L381.06 99.04Z" fill="#040006"/>
<path d="M452.49 134.29C448.43 130.56 446.81 125.37 446.81 117.59V74.1601H433.81V57.9301H446.81L453.81 58.3701L446.81 50.7001V37.8201H466.27V57.9301H480.54V74.1601H466.27V114.53C466.27 117.45 466.76 119.39 468.21 120.69C469.67 122.15 471.94 122.8 475.21 122.8C477.015 122.826 478.814 122.607 480.56 122.15V139.01C477.244 139.65 473.877 139.985 470.5 140.01C462.54 139.97 456.38 138.16 452.49 134.29Z" fill="#040006"/>
<path d="M485.28 35.03V33.65H492.28V35.03H489.51V42.03H488.06V35.03H485.28ZM493.28 42.03V33.68H494.67L497.59 40.55L500.51 33.68H501.9V42.03H500.51V36.63L498.21 42.03H496.97L494.67 36.72V42.03H493.28Z" fill="#040006"/>
<path d="M152.61 23.23H175.61L226.61 109.32H228.98V23.23H248.76V139.97H226.06L174.74 53.39H172.39V139.97H152.61V23.23Z" fill="#040006"/>
</svg>
